<svg xmlns="http://www.w3.org/2000/svg" width="3000" height="2000" style="width:100%;height:100%;transform:translate3d(0,0,0)" viewBox="0 0 3000 2000"><defs><clipPath id="a"><path d="M0 0h3000v2000H0z"/></clipPath><clipPath id="d"><path d="M0 0h153v154H0z"/></clipPath><clipPath id="c"><path d="M0 0h181v181H0z"/></clipPath><clipPath id="b"><path d="M0 0h316v316H0z"/></clipPath></defs><g clip-path="url(#a)"><path fill="#C0F7E6" d="M789.5 0c0 436.029-353.471 789.5-789.5 789.5S-789.5 436.029-789.5 0-436.029-789.5 0-789.5 789.5-436.029 789.5 0z" style="display:block" transform="translate(2009.5 899.5) scale(.98525)"/><path fill="none" stroke="#121331" stroke-linecap="round" stroke-linejoin="round" stroke-width="5" d="m0-36.75.5 225.5" style="display:block" transform="translate(2152.5 1380.75)"/><path fill="none" stroke="#121331" stroke-linecap="round" stroke-linejoin="round" stroke-width="5" d="m-383.154 535.789 371.827-.693c16.569 0 30-13.432 30-30V78.404c0-16.569 13.431-30 30-30h100.481c16.569 0 30-13.431 30-30v-523.5c0-16.569-13.431-30-30-30H18.673" style="display:block" transform="translate(2665.827 1081.596)"/><path fill="none" stroke="#121331" stroke-linecap="round" stroke-linejoin="round" stroke-width="5" d="M273 150h-546c-16.569 0-30-13.431-30-30v-240c0-16.569 13.431-30 30-30h546c16.569 0 30 13.431 30 30v240c0 16.569-13.431 30-30 30z" style="display:block" transform="translate(706.5 308)"/><g style="display:block"><path fill="#FFF" d="M1696.5 1343.5h-240c-16.569 0-30-13.431-30-30v-240c0-16.569 13.431-30 30-30h240c16.569 0 30 13.431 30 30v240c0 16.569-13.431 30-30 30z"/><path fill="none" stroke="#121331" stroke-linecap="round" stroke-linejoin="round" stroke-width="5" d="M1696.5 1343.5h-240c-16.569 0-30-13.431-30-30v-240c0-16.569 13.431-30 30-30h240c16.569 0 30 13.431 30 30v240c0 16.569-13.431 30-30 30z"/></g><path fill="none" stroke="#121331" stroke-linecap="round" stroke-linejoin="round" stroke-width="5" d="M120 150h-240c-16.569 0-30-13.431-30-30v-240c0-16.569 13.431-30 30-30h240c16.569 0 30 13.431 30 30v240c0 16.569-13.431 30-30 30z" style="display:block" transform="translate(677.5 1193.5)"/><g style="display:block"><path fill="#FFF" d="M2654.5 881.5h-610c-16.569 0-30-13.431-30-30v-610c0-16.569 13.431-30 30-30h610c16.569 0 30 13.431 30 30v610c0 16.569-13.431 30-30 30z"/><path fill="none" stroke="#121331" stroke-linecap="round" stroke-linejoin="round" stroke-width="5" d="M2654.5 881.5h-610c-16.569 0-30-13.431-30-30v-610c0-16.569 13.431-30 30-30h610c16.569 0 30 13.431 30 30v610c0 16.569-13.431 30-30 30z"/></g><path fill="none" stroke="#121331" stroke-linecap="round" stroke-linejoin="round" stroke-width="5" d="M360 150h-720c-16.569 0-30-13.431-30-30v-240c0-16.569 13.431-30 30-30h720c16.569 0 30 13.431 30 30v240c0 16.569-13.431 30-30 30z" style="display:block" transform="translate(679 725.5)"/><g style="display:block"><path fill="#FFF" d="M1696.5 1748.5h-954c-16.569 0-30-13.431-30-30v-240c0-16.569 13.431-30 30-30h954c16.569 0 30 13.431 30 30v240c0 16.569-13.431 30-30 30z"/><path fill="none" stroke="#121331" stroke-linecap="round" stroke-linejoin="round" stroke-width="5" d="M1696.5 1748.5h-954c-16.569 0-30-13.431-30-30v-240c0-16.569 13.431-30 30-30h954c16.569 0 30 13.431 30 30v240c0 16.569-13.431 30-30 30z"/></g><g style="display:block"><path fill="#FFF" d="M2425.5 1343.5h-546c-16.569 0-30-13.431-30-30v-240c0-16.569 13.431-30 30-30h546c16.569 0 30 13.431 30 30v240c0 16.569-13.431 30-30 30z"/><path fill="none" stroke="#121331" stroke-linecap="round" stroke-linejoin="round" stroke-width="5" d="M2425.5 1343.5h-546c-16.569 0-30-13.431-30-30v-240c0-16.569 13.431-30 30-30h546c16.569 0 30 13.431 30 30v240c0 16.569-13.431 30-30 30z"/></g><g style="display:block"><path fill="#FFF" d="M1990.019 1417.5h297.462c110.011 0 199.192 89.181 199.192 199.192v.001c0 110.011-89.181 199.192-199.192 199.192h-360.539L1790.827 1952v-335.308c0-110.011 89.181-199.192 199.192-199.192z"/><path fill="none" stroke="#121331" stroke-linecap="round" stroke-linejoin="round" stroke-width="5" d="M1990.019 1417.5h297.462c110.011 0 199.192 89.181 199.192 199.192v.001c0 110.011-89.181 199.192-199.192 199.192h-360.539L1790.827 1952v-335.308c0-110.011 89.181-199.192 199.192-199.192z"/></g><g style="display:block"><path fill="#FFF" d="M1198.978 1043.5h-137.956c-61.746 0-111.802 50.055-111.802 111.801s50.056 111.801 111.802 111.801h173.36l76.398 76.398v-188.199c0-61.746-50.056-111.801-111.802-111.801z"/><path fill="none" stroke="#121331" stroke-linecap="round" stroke-linejoin="round" stroke-width="5" d="M1198.978 1043.5h-137.956c-61.746 0-111.802 50.055-111.802 111.801 0 0 0 0 0 0 0 61.746 50.056 111.801 111.802 111.801h173.36l76.398 76.398v-188.199s0 0 0 0c0-61.746-50.056-111.801-111.802-111.801z"/></g><path fill="none" stroke="#121331" stroke-linecap="round" stroke-linejoin="round" stroke-width="5" d="M-411.5-43.243v-29.514c0-16.569 13.431-30 30-30H381c16.569 0 30 13.431 30 30v355.514" style="display:block" transform="translate(1118 199.743)"/><g style="display:block"><path fill="#FFF" d="M1667.759 302.001h-280.518c-123.374 0-223.389 100.014-223.389 223.388v.001c0 123.374 100.015 223.388 223.389 223.388h351.257l152.65 152.649V525.389c0-123.374-100.015-223.388-223.389-223.388z"/><path fill="none" stroke="#121331" stroke-linecap="round" stroke-linejoin="round" stroke-width="5" d="M1667.759 302.001h-280.518c-123.374 0-223.389 100.014-223.389 223.388v.001c0 123.374 100.015 223.388 223.389 223.388h351.257l152.65 152.649V525.389c0-123.374-100.015-223.388-223.389-223.388z"/></g><path fill="none" stroke="#121331" stroke-linecap="round" stroke-linejoin="round" stroke-width="5" d="M-424-41.5v83l848-1" style="display:block" transform="translate(1103 917.5)"/><path fill="none" stroke="#121331" stroke-linecap="round" stroke-linejoin="round" stroke-width="5" d="M0 41.25v-82.5" style="display:block" transform="translate(1130 1001.25)"/><path fill="none" stroke="#121331" stroke-linecap="round" stroke-linejoin="round" stroke-width="5" d="M-24-42.5h48v85" style="display:block" transform="translate(1553 1000.5)"/><path fill="none" stroke="#121331" stroke-linecap="round" stroke-linejoin="round" stroke-width="5" d="M0-42.5v85" style="display:block" transform="translate(679 1001)"/><path fill="none" stroke="#121331" stroke-linecap="round" stroke-linejoin="round" stroke-width="5" d="M-146.757-436.5h-101c-16.569 0-30 13.431-30 30v813c0 16.569 13.431 30 30 30h525.514" style="display:block" transform="translate(434.743 1162)"/><path fill="none" stroke="#121331" stroke-linecap="round" stroke-linejoin="round" stroke-width="5" d="M0-58.75v117.5" style="display:block" transform="translate(706.5 516.75)"/><path fill="none" stroke="#121331" stroke-linecap="round" stroke-linejoin="round" stroke-width="5" d="M-290.5-42.75h581v85.5" style="display:block" transform="translate(1867.5 1000.75)"/><g style="mix-blend-mode:multiply;display:block"><path fill="#E7E0FD" d="M405.5 0c0-223.951-181.549-405.5-405.5-405.5S-405.5-223.951-405.5 0-223.951 405.5 0 405.5 405.5 223.951 405.5 0z" style="mix-blend-mode:multiply" transform="translate(677.5 1192.5)"/></g><path fill="none" stroke="#121331" stroke-linecap="round" stroke-linejoin="round" stroke-width="5" d="M-95.75 38.25h161.5c16.569 0 30-13.431 30-30v-46.5" style="display:block" transform="translate(2253.75 919.75)"/><g clip-path="url(#b)" style="display:block" transform="translate(1418.5 1035.5)"><g style="display:block"><path fill="#121331" d="M146.5 158.25c0 6.351 5.149 11.5 11.5 11.5s11.5-5.149 11.5-11.5-5.149-11.5-11.5-11.5-11.5 5.149-11.5 11.5z"/><path fill="none" stroke="#121331" stroke-linecap="round" stroke-linejoin="round" stroke-width="5" d="M146.5 158.25c0 6.351 5.149 11.5 11.5 11.5s11.5-5.149 11.5-11.5-5.149-11.5-11.5-11.5-11.5 5.149-11.5 11.5z"/><path fill="#121331" d="M86 157.5c0 6.351 5.149 11.5 11.5 11.5s11.5-5.149 11.5-11.5-5.149-11.5-11.5-11.5S86 151.149 86 157.5z"/><path fill="none" stroke="#121331" stroke-linecap="round" stroke-linejoin="round" stroke-width="5" d="M86 157.5c0 6.351 5.149 11.5 11.5 11.5s11.5-5.149 11.5-11.5-5.149-11.5-11.5-11.5S86 151.149 86 157.5z"/><path fill="#121331" d="M207 158.5c0 6.351 5.149 11.5 11.5 11.5s11.5-5.149 11.5-11.5-5.149-11.5-11.5-11.5-11.5 5.149-11.5 11.5z"/><path fill="none" stroke="#121331" stroke-linecap="round" stroke-linejoin="round" stroke-width="5" d="M207 158.5c0 6.351 5.149 11.5 11.5 11.5s11.5-5.149 11.5-11.5-5.149-11.5-11.5-11.5-11.5 5.149-11.5 11.5z"/></g><g fill="none" style="display:none"><path/><path/></g></g><g style="display:block"><path fill="#121331" d="m2294 665.5 141-119-141-119v238z"/><path fill="none" stroke="#121331" stroke-linecap="round" stroke-linejoin="round" stroke-width="5" d="m2294 665.5 141-119-141-119v238z"/></g><g clip-path="url(#c)" style="display:block" transform="translate(587 1104)"><g style="display:block"><path fill="#121331" d="M90 139.497 139.497 90 90 40.503 40.503 90 90 139.497z"/><path fill="none" stroke="#121331" stroke-linecap="round" stroke-linejoin="round" stroke-width="5" d="M90 139.497 139.497 90 90 40.503 40.503 90 90 139.497z"/></g><g style="display:block"><path fill="#121331" d="M90 139.497 139.497 90 90 40.503 40.503 90 90 139.497z"/><path fill="none" stroke="#121331" stroke-linecap="round" stroke-linejoin="round" stroke-width="5" d="M90 139.497 139.497 90 90 40.503 40.503 90 90 139.497z"/></g><g style="display:block"><path fill="#FFF" d="M90 139.497 139.497 90 90 40.503l-.061-.189L139.378 90l-49.502 49.499.124-.002z"/><path fill="none" stroke="#121331" stroke-linecap="round" stroke-linejoin="round" stroke-width="5" d="M90 139.497 139.497 90 90 40.503l-.061-.189L139.378 90l-49.502 49.499.124-.002z"/></g><g style="display:none"><path/><path fill="none"/></g><g style="display:none"><path/><path fill="none"/></g><g style="display:none"><path/><path fill="none"/></g><g style="display:none"><path/><path fill="none"/></g><g style="display:none"><path/><path fill="none"/></g><g style="display:none"><path/><path fill="none"/></g><g style="display:none"><path/><path fill="none"/></g><g style="display:none"><path/><path fill="none"/></g><g style="display:none"><path/><path fill="none"/></g></g><g clip-path="url(#d)" style="display:block" transform="translate(629.5 233)"><g style="display:block"><path fill="#121331" d="M129 75c0 28.995-23.505 52.5-52.5 52.5S24 103.995 24 75s23.505-52.5 52.5-52.5S129 46.005 129 75z"/><path fill="none" stroke="#121331" stroke-linecap="round" stroke-linejoin="round" stroke-width="5" d="M129 75c0 28.995-23.505 52.5-52.5 52.5S24 103.995 24 75s23.505-52.5 52.5-52.5S129 46.005 129 75z"/></g><g style="display:block"><path fill="#121331" d="M129 75c0 28.995-23.505 52.5-52.5 52.5S24 103.995 24 75s23.505-52.5 52.5-52.5S129 46.005 129 75z"/><path fill="none" stroke="#121331" stroke-linecap="round" stroke-linejoin="round" stroke-width="5" d="M129 75c0 28.995-23.505 52.5-52.5 52.5S24 103.995 24 75s23.505-52.5 52.5-52.5S129 46.005 129 75z"/></g><g style="display:block"><path fill="#FFF" d="M129 75c0 28.424-22.588 51.572-50.793 52.473a53.79 53.79 0 0 1-1.707.027c29.25 0 52.25-23.505 52.25-52.5S105.5 22.5 76.5 22.5l.362.001C105.69 22.696 129 46.126 129 75z"/><path fill="none" stroke="#121331" stroke-linecap="round" stroke-linejoin="round" stroke-width="5" d="M129 75c0 28.424-22.588 51.572-50.793 52.473a53.79 53.79 0 0 1-1.707.027c29.25 0 52.25-23.505 52.25-52.5S105.5 22.5 76.5 22.5l.362.001C105.69 22.696 129 46.126 129 75z"/></g><g style="display:none"><path/><path fill="none"/></g><g style="display:none"><path/><path fill="none"/></g><g style="display:none"><path/><path fill="none"/></g><g style="display:none"><path/><path fill="none"/></g><g style="display:none"><path/><path fill="none"/></g><g style="display:none"><path/><path fill="none"/></g><g style="display:none"><path/><path fill="none"/></g><g style="display:none"><path/><path fill="none"/></g><g style="display:none"><path/><path fill="none"/></g></g><path fill="none" stroke="#121331" stroke-linecap="round" stroke-linejoin="round" stroke-width="5" d="M969 1563.5h501m-501 70h400.5m645.25-475h275.5m-275.5 70h275.5m-1749-538h275.5m-275.5 70h275.5" style="display:block"/></g></svg>